<svg width="700" height="510" viewBox="0 0 700 510" xmlns="http://www.w3.org/2000/svg"><rect width="700" height="510" fill="#f9fafb" rx="10"/><defs>
<marker id="a"  viewBox="0 0 10 10" refX="8" refY="5" markerWidth="5" markerHeight="5" orient="auto-start-reverse"><path d="M2 1L8 5L2 9" fill="none" stroke="#6b7280" stroke-width="1.5" stroke-linecap="round"/></marker>
<marker id="ag" viewBox="0 0 10 10" refX="8" refY="5" markerWidth="5" markerHeight="5" orient="auto-start-reverse"><path d="M2 1L8 5L2 9" fill="none" stroke="#059669" stroke-width="1.5" stroke-linecap="round"/></marker>
<marker id="ao" viewBox="0 0 10 10" refX="8" refY="5" markerWidth="5" markerHeight="5" orient="auto-start-reverse"><path d="M2 1L8 5L2 9" fill="none" stroke="#ea580c" stroke-width="1.5" stroke-linecap="round"/></marker>
</defs><g transform="translate(170,6)"><circle cx="30" cy="16" r="9" fill="#ea580c"/><text x="30" y="20" text-anchor="middle" font-size="8" font-weight="bold" fill="#ffffff" font-family="Arial,sans-serif">1</text><line x1="39" y1="16" x2="47" y2="16" stroke="#cbd5e1" stroke-width="1.3"/><circle cx="56" cy="16" r="9" fill="#cbd5e1"/><text x="56" y="20" text-anchor="middle" font-size="8" font-weight="bold" fill="#ffffff" font-family="Arial,sans-serif">2</text><line x1="65" y1="16" x2="73" y2="16" stroke="#cbd5e1" stroke-width="1.3"/><circle cx="82" cy="16" r="9" fill="#cbd5e1"/><text x="82" y="20" text-anchor="middle" font-size="8" font-weight="bold" fill="#ffffff" font-family="Arial,sans-serif">3</text><line x1="91" y1="16" x2="99" y2="16" stroke="#cbd5e1" stroke-width="1.3"/><circle cx="108" cy="16" r="9" fill="#cbd5e1"/><text x="108" y="20" text-anchor="middle" font-size="8" font-weight="bold" fill="#ffffff" font-family="Arial,sans-serif">4</text><line x1="117" y1="16" x2="125" y2="16" stroke="#cbd5e1" stroke-width="1.3"/><circle cx="134" cy="16" r="9" fill="#cbd5e1"/><text x="134" y="20" text-anchor="middle" font-size="8" font-weight="bold" fill="#ffffff" font-family="Arial,sans-serif">5</text><line x1="143" y1="16" x2="151" y2="16" stroke="#cbd5e1" stroke-width="1.3"/><circle cx="160" cy="16" r="9" fill="#cbd5e1"/><text x="160" y="20" text-anchor="middle" font-size="8" font-weight="bold" fill="#ffffff" font-family="Arial,sans-serif">6</text></g><text x="350" y="40" text-anchor="middle" font-size="13" font-weight="bold" fill="#1f2937" font-family="Arial,sans-serif">Step 1 — Install Jenkins on EC2</text><rect x="240" y="55" width="220" height="38" rx="9" fill="#f1f5f9" stroke="#cbd5e1" stroke-width="1.5"/><text x="350" y="67" text-anchor="middle" font-size="10" font-weight="bold" fill="#94a3b8" font-family="Arial,sans-serif">🐙 GitHub Repository</text><text x="350" y="82" text-anchor="middle" font-size="8" font-weight="normal" fill="#6b7280" font-family="Arial,sans-serif">Code push triggers webhook</text><line x1="350" y1="93" x2="350" y2="113" stroke="#6b7280" stroke-width="1.4" marker-end="url(#a)"/><rect x="240" y="115" width="220" height="40" rx="9" fill="#fff7ed" stroke="#ea580c" stroke-width="1.5"/><text x="350" y="128" text-anchor="middle" font-size="10" font-weight="bold" fill="#9a3412" font-family="Arial,sans-serif">🏗️ Jenkins CI Server ◉</text><text x="350" y="143" text-anchor="middle" font-size="8" font-weight="normal" fill="#6b7280" font-family="Arial,sans-serif">EC2 t2.micro — port 8080</text><line x1="350" y1="155" x2="350" y2="175" stroke="#6b7280" stroke-width="1.4" marker-end="url(#a)"/><rect x="190" y="177" width="320" height="40" rx="9" fill="#f1f5f9" stroke="#cbd5e1" stroke-width="1.5"/><text x="350" y="190" text-anchor="middle" font-size="10" font-weight="bold" fill="#94a3b8" font-family="Arial,sans-serif">📋 Jenkinsfile Pipeline</text><text x="350" y="205" text-anchor="middle" font-size="8" font-weight="normal" fill="#6b7280" font-family="Arial,sans-serif">Checkout → Build → Test → Push → Deploy</text><line x1="350" y1="217" x2="350" y2="237" stroke="#6b7280" stroke-width="1.4" marker-end="url(#a)"/><rect x="240" y="239" width="220" height="38" rx="9" fill="#f1f5f9" stroke="#cbd5e1" stroke-width="1.5"/><text x="350" y="251" text-anchor="middle" font-size="10" font-weight="bold" fill="#94a3b8" font-family="Arial,sans-serif">🐳 Docker Build & Push</text><text x="350" y="266" text-anchor="middle" font-size="8" font-weight="normal" fill="#6b7280" font-family="Arial,sans-serif">Image → DockerHub registry</text><line x1="240" y1="258" x2="70" y2="258" stroke="#6b7280" stroke-width="1.4" marker-end="url(#a)"/><rect x="20" y="239" width="200" height="38" rx="9" fill="#f1f5f9" stroke="#cbd5e1" stroke-width="1.5"/><text x="120" y="251" text-anchor="middle" font-size="10" font-weight="bold" fill="#94a3b8" font-family="Arial,sans-serif">🚀 Deploy Server</text><text x="120" y="266" text-anchor="middle" font-size="8" font-weight="normal" fill="#6b7280" font-family="Arial,sans-serif">docker pull + run container</text><line x1="460" y1="258" x2="505" y2="258" stroke="#6b7280" stroke-width="1.4" marker-end="url(#a)"/><rect x="505" y="239" width="185" height="38" rx="9" fill="#f1f5f9" stroke="#cbd5e1" stroke-width="1.5"/><text x="597" y="251" text-anchor="middle" font-size="10" font-weight="bold" fill="#94a3b8" font-family="Arial,sans-serif">📊 CloudWatch</text><text x="597" y="266" text-anchor="middle" font-size="8" font-weight="normal" fill="#6b7280" font-family="Arial,sans-serif">Logs + CPU alarms</text><rect x="460" y="310" width="220" height="101" rx="8" fill="#f8fafc" stroke="#e2e8f0" stroke-width="1"/><text x="470" y="324" text-anchor="start" font-size="8" font-weight="bold" fill="#1f2937" font-family="Arial,sans-serif">🏗️ Install Jenkins</text><text x="470" y="341" text-anchor="start" font-size="8" font-weight="normal" fill="#6b7280" font-family="Arial,sans-serif">sudo apt install openjdk-11-jdk</text><text x="470" y="358" text-anchor="start" font-size="8" font-weight="normal" fill="#6b7280" font-family="Arial,sans-serif">wget jenkins repo + install</text><text x="470" y="375" text-anchor="start" font-size="8" font-weight="normal" fill="#6b7280" font-family="Arial,sans-serif">systemctl start jenkins</text><text x="470" y="392" text-anchor="start" font-size="8" font-weight="normal" fill="#6b7280" font-family="Arial,sans-serif">Access: http://EC2-IP:8080</text><rect x="10" y="490" width="680" height="1" fill="#e2e8f0"/><rect x="16" y="496" width="11" height="10" rx="2" fill="#d1fae5" stroke="#059669" stroke-width="1"/><text x="31" y="504" text-anchor="start" font-size="8" font-weight="normal" fill="#059669" font-family="Arial,sans-serif">Done</text><rect x="74" y="496" width="11" height="10" rx="2" fill="#fff7ed" stroke="#ea580c" stroke-width="1"/><text x="89" y="504" text-anchor="start" font-size="8" font-weight="normal" fill="#ea580c" font-family="Arial,sans-serif">Current</text><rect x="144" y="496" width="11" height="10" rx="2" fill="#f1f5f9" stroke="#cbd5e1" stroke-width="1"/><text x="159" y="504" text-anchor="start" font-size="8" font-weight="normal" fill="#94a3b8" font-family="Arial,sans-serif">Pending</text><text x="680" y="504" text-anchor="end" font-size="8" font-weight="normal" fill="#94a3b8" font-family="Arial,sans-serif">Step 1/6 — CI/CD Jenkins+Docker</text></svg>